<?xml version="1.0" encoding="UTF-8"?>
<svg width="550px" height="482px" viewBox="0 0 550 482" version="1.1" xmlns="http://www.w3.org/2000/svg" xmlns:xlink="http://www.w3.org/1999/xlink">
    <title>Website &amp; Blog</title>
    <defs>
        <filter x="-28.5%" y="-21.3%" width="157.0%" height="142.7%" filterUnits="objectBoundingBox" id="filter-1">
            <feOffset dx="0" dy="10" in="SourceAlpha" result="shadowOffsetOuter1"></feOffset>
            <feGaussianBlur stdDeviation="15" in="shadowOffsetOuter1" result="shadowBlurOuter1"></feGaussianBlur>
            <feColorMatrix values="0 0 0 0 0   0 0 0 0 0   0 0 0 0 0  0 0 0 0.1 0" type="matrix" in="shadowBlurOuter1" result="shadowMatrixOuter1"></feColorMatrix>
            <feMerge>
                <feMergeNode in="shadowMatrixOuter1"></feMergeNode>
                <feMergeNode in="SourceGraphic"></feMergeNode>
            </feMerge>
        </filter>
        <filter x="-28.5%" y="-21.3%" width="157.0%" height="142.7%" filterUnits="objectBoundingBox" id="filter-2">
            <feOffset dx="0" dy="10" in="SourceAlpha" result="shadowOffsetOuter1"></feOffset>
            <feGaussianBlur stdDeviation="15" in="shadowOffsetOuter1" result="shadowBlurOuter1"></feGaussianBlur>
            <feColorMatrix values="0 0 0 0 0   0 0 0 0 0   0 0 0 0 0  0 0 0 0.1 0" type="matrix" in="shadowBlurOuter1" result="shadowMatrixOuter1"></feColorMatrix>
            <feMerge>
                <feMergeNode in="shadowMatrixOuter1"></feMergeNode>
                <feMergeNode in="SourceGraphic"></feMergeNode>
            </feMerge>
        </filter>
    </defs>
    <g id="Website-&amp;-Blog" stroke="none" stroke-width="1" fill="none" fill-rule="evenodd">
        <polygon id="Fill-26" fill="#8FD6B0" points="550 0 0 85.9489835 0 482 550 396.051016"></polygon>
        <g id="Direct-Deposit-Enrollment-Copy" filter="url(#filter-1)" transform="translate(220.000000, 76.000000)">
            <rect id="Rectangle" fill="#FFFFFF" x="0" y="0" width="270" height="361" rx="3"></rect>
            <g id="Form-Field/Name" transform="translate(23.000000, 75.000000)">
                <rect id="Rectangle" fill="#EDF2F5" x="1.42108547e-13" y="14.2105263" width="107.171053" height="20" rx="3"></rect>
                <text id="Name" font-family="HelveticaNeue-Medium, Helvetica Neue" font-size="8" font-weight="400" fill="#162731">
                    <tspan x="0" y="8">Name*</tspan>
                </text>
                <path d="M1.211,43 L1.211,40.711 L3.507,40.711 L3.507,40.151 L1.211,40.151 L1.211,38.562 L3.829,38.562 L3.829,38.002 L0.546,38.002 L0.546,43 L1.211,43 Z M5.096,38.73 L5.096,38.002 L4.501,38.002 L4.501,38.73 L5.096,38.73 Z M5.096,43 L5.096,39.381 L4.501,39.381 L4.501,43 L5.096,43 Z M6.594,43 L6.594,41.39 C6.594,41.1566667 6.61733333,40.9501667 6.664,40.7705 C6.71066667,40.5908333 6.78533333,40.438 6.888,40.312 C6.99066667,40.186 7.126,40.0903333 7.294,40.025 C7.462,39.9596667 7.665,39.927 7.903,39.927 L7.903,39.297 C7.581,39.2876667 7.315,39.353 7.105,39.493 C6.895,39.633 6.71766667,39.85 6.573,40.144 L6.559,40.144 L6.559,39.381 L5.999,39.381 L5.999,43 L6.594,43 Z M9.653,43.077 C9.835,43.077 10.0181667,43.0595 10.2025,43.0245 C10.3868333,42.9895 10.5525,42.9276667 10.6995,42.839 C10.8465,42.7503333 10.9655,42.6336667 11.0565,42.489 C11.1475,42.3443333 11.193,42.1623333 11.193,41.943 C11.193,41.7703333 11.1591667,41.6256667 11.0915,41.509 C11.0238333,41.3923333 10.9351667,41.2955 10.8255,41.2185 C10.7158333,41.1415 10.5898333,41.0796667 10.4475,41.033 C10.3051667,40.9863333 10.1593333,40.9466667 10.01,40.914 C9.87,40.8813333 9.73,40.8498333 9.59,40.8195 C9.45,40.7891667 9.324,40.7518333 9.212,40.7075 C9.1,40.6631667 9.00783333,40.6071667 8.9355,40.5395 C8.86316667,40.4718333 8.827,40.3866667 8.827,40.284 C8.827,40.1906667 8.85033333,40.1148333 8.897,40.0565 C8.94366667,39.9981667 9.00433333,39.9515 9.079,39.9165 C9.15366667,39.8815 9.2365,39.857 9.3275,39.843 C9.4185,39.829 9.50833333,39.822 9.597,39.822 C9.695,39.822 9.79183333,39.8325 9.8875,39.8535 C9.98316667,39.8745 10.0706667,39.9083333 10.15,39.955 C10.2293333,40.0016667 10.2946667,40.0635 10.346,40.1405 C10.3973333,40.2175 10.4276667,40.3143333 10.437,40.431 L11.032,40.431 C11.018,40.2116667 10.9713333,40.0285 10.892,39.8815 C10.8126667,39.7345 10.7065,39.6178333 10.5735,39.5315 C10.4405,39.4451667 10.2876667,39.3845 10.115,39.3495 C9.94233333,39.3145 9.75333333,39.297 9.548,39.297 C9.38933333,39.297 9.2295,39.3168333 9.0685,39.3565 C8.9075,39.3961667 8.76283333,39.4568333 8.6345,39.5385 C8.50616667,39.6201667 8.40116667,39.7263333 8.3195,39.857 C8.23783333,39.9876667 8.197,40.144 8.197,40.326 C8.197,40.5593333 8.25533333,40.7413333 8.372,40.872 C8.48866667,41.0026667 8.6345,41.1041667 8.8095,41.1765 C8.9845,41.2488333 9.17466667,41.3048333 9.38,41.3445 C9.58533333,41.3841667 9.7755,41.4285 9.9505,41.4775 C10.1255,41.5265 10.2713333,41.5906667 10.388,41.67 C10.5046667,41.7493333 10.563,41.866 10.563,42.02 C10.563,42.132 10.535,42.2241667 10.479,42.2965 C10.423,42.3688333 10.3518333,42.4236667 10.2655,42.461 C10.1791667,42.4983333 10.0846667,42.524 9.982,42.538 C9.87933333,42.552 9.78133333,42.559 9.688,42.559 C9.56666667,42.559 9.44883333,42.5473333 9.3345,42.524 C9.22016667,42.5006667 9.1175,42.4621667 9.0265,42.4085 C8.9355,42.3548333 8.862,42.2825 8.806,42.1915 C8.75,42.1005 8.71966667,41.9896667 8.715,41.859 L8.12,41.859 C8.12933333,42.083 8.176,42.2731667 8.26,42.4295 C8.344,42.5858333 8.456,42.7118333 8.596,42.8075 C8.736,42.9031667 8.897,42.972 9.079,43.014 C9.261,43.056 9.45233333,43.077 9.653,43.077 Z M13.398,43 L13.398,42.475 L13.125,42.475 C13.0316667,42.475 12.9558333,42.4715 12.8975,42.4645 C12.8391667,42.4575 12.7936667,42.4423333 12.761,42.419 C12.7283333,42.3956667 12.7061667,42.363 12.6945,42.321 C12.6828333,42.279 12.677,42.223 12.677,42.153 L12.677,39.906 L13.398,39.906 L13.398,39.381 L12.677,39.381 L12.677,38.296 L12.082,38.296 L12.082,39.381 L11.466,39.381 L11.466,39.906 L12.082,39.906 L12.082,42.209 C12.082,42.377 12.0983333,42.5123333 12.131,42.615 C12.1636667,42.7176667 12.2138333,42.797 12.2815,42.853 C12.3491667,42.909 12.4378333,42.9475 12.5475,42.9685 C12.6571667,42.9895 12.789,43 12.943,43 L13.398,43 Z M16.723,43 L16.723,38.989 L16.737,38.989 L19.348,43 L20.076,43 L20.076,38.002 L19.446,38.002 L19.446,42.055 L19.432,42.055 L16.8,38.002 L16.093,38.002 L16.093,43 L16.723,43 Z M23.835,43.077 C24.017,43.077 24.1593333,43.0466667 24.262,42.986 L24.262,42.986 L24.262,42.524 C24.192,42.5473333 24.1313333,42.559 24.08,42.559 C23.9866667,42.559 23.9318333,42.5263333 23.9155,42.461 C23.8991667,42.3956667 23.891,42.293 23.891,42.153 L23.891,42.153 L23.891,40.291 C23.891,40.081 23.8513333,39.9106667 23.772,39.78 C23.6926667,39.6493333 23.5876667,39.5478333 23.457,39.4755 C23.3263333,39.4031667 23.1805,39.3553333 23.0195,39.332 C22.8585,39.3086667 22.6963333,39.297 22.533,39.297 C22.3276667,39.297 22.1351667,39.318 21.9555,39.36 C21.7758333,39.402 21.616,39.4708333 21.476,39.5665 C21.336,39.6621667 21.224,39.787 21.14,39.941 C21.056,40.095 21.0093333,40.284 21,40.508 L21,40.508 L21.595,40.508 C21.609,40.242 21.7,40.0611667 21.868,39.9655 C22.036,39.8698333 22.246,39.822 22.498,39.822 C22.5913333,39.822 22.6858333,39.829 22.7815,39.843 C22.8771667,39.857 22.9635,39.885 23.0405,39.927 C23.1175,39.969 23.1805,40.0296667 23.2295,40.109 C23.2785,40.1883333 23.303,40.2933333 23.303,40.424 C23.303,40.536 23.2703333,40.6211667 23.205,40.6795 C23.1396667,40.7378333 23.051,40.7821667 22.939,40.8125 C22.827,40.8428333 22.6975,40.8661667 22.5505,40.8825 C22.4035,40.8988333 22.2483333,40.9233333 22.085,40.956 C21.931,40.984 21.7805,41.019 21.6335,41.061 C21.4865,41.103 21.3558333,41.1648333 21.2415,41.2465 C21.1271667,41.3281667 21.035,41.4343333 20.965,41.565 C20.895,41.6956667 20.86,41.8636667 20.86,42.069 C20.86,42.251 20.8915,42.4061667 20.9545,42.5345 C21.0175,42.6628333 21.1026667,42.7666667 21.21,42.846 C21.3173333,42.9253333 21.4445,42.9836667 21.5915,43.021 C21.7385,43.0583333 21.8936667,43.077 22.057,43.077 C22.309,43.077 22.5435,43.0338333 22.7605,42.9475 C22.9775,42.8611667 23.1676667,42.72 23.331,42.524 C23.331,42.72 23.3765,42.8611667 23.4675,42.9475 C23.5585,43.0338333 23.681,43.077 23.835,43.077 Z M22.19,42.559 C22.0966667,42.559 22.008,42.5496667 21.924,42.531 C21.84,42.5123333 21.7665,42.482 21.7035,42.44 C21.6405,42.398 21.5891667,42.3431667 21.5495,42.2755 C21.5098333,42.2078333 21.49,42.125 21.49,42.027 C21.49,41.8776667 21.5238333,41.7598333 21.5915,41.6735 C21.6591667,41.5871667 21.7466667,41.5206667 21.854,41.474 C21.9613333,41.4273333 22.0826667,41.3935 22.218,41.3725 C22.3533333,41.3515 22.4875,41.3328333 22.6205,41.3165 C22.7535,41.3001667 22.8806667,41.2791667 23.002,41.2535 C23.1233333,41.2278333 23.2213333,41.187 23.296,41.131 L23.296,41.131 L23.296,41.74 C23.296,41.824 23.275,41.9138333 23.233,42.0095 C23.191,42.1051667 23.1256667,42.1938333 23.037,42.2755 C22.9483333,42.3571667 22.834,42.4248333 22.694,42.4785 C22.554,42.5321667 22.386,42.559 22.19,42.559 Z M25.41,43 L25.41,40.746 C25.41,40.676 25.4275,40.5885 25.4625,40.4835 C25.4975,40.3785 25.5535,40.277 25.6305,40.179 C25.7075,40.081 25.8078333,39.997 25.9315,39.927 C26.0551667,39.857 26.2033333,39.822 26.376,39.822 C26.5113333,39.822 26.6221667,39.8418333 26.7085,39.8815 C26.7948333,39.9211667 26.8636667,39.9771667 26.915,40.0495 C26.9663333,40.1218333 27.0025,40.207 27.0235,40.305 C27.0445,40.403 27.055,40.5103333 27.055,40.627 L27.055,43 L27.65,43 L27.65,40.746 C27.65,40.466 27.734,40.242 27.902,40.074 C28.07,39.906 28.301,39.822 28.595,39.822 C28.7396667,39.822 28.8575,39.843 28.9485,39.885 C29.0395,39.927 29.1106667,39.9841667 29.162,40.0565 C29.2133333,40.1288333 29.2483333,40.214 29.267,40.312 C29.2856667,40.41 29.295,40.515 29.295,40.627 L29.295,43 L29.89,43 L29.89,40.347 C29.89,40.1603333 29.8608333,40.0005 29.8025,39.8675 C29.7441667,39.7345 29.6625,39.626 29.5575,39.542 C29.4525,39.458 29.3265,39.3961667 29.1795,39.3565 C29.0325,39.3168333 28.868,39.297 28.686,39.297 C28.448,39.297 28.2298333,39.3506667 28.0315,39.458 C27.8331667,39.5653333 27.6733333,39.717 27.552,39.913 C27.4773333,39.689 27.349,39.5303333 27.167,39.437 C26.985,39.3436667 26.782,39.297 26.558,39.297 C26.0493333,39.297 25.6596667,39.5023333 25.389,39.913 L25.375,39.913 L25.375,39.381 L24.815,39.381 L24.815,43 L25.41,43 Z M32.326,43.077 C32.7366667,43.077 33.0773333,42.9743333 33.348,42.769 C33.6186667,42.5636667 33.7936667,42.258 33.873,41.852 L33.285,41.852 C33.2336667,42.09 33.1275,42.2673333 32.9665,42.384 C32.8055,42.5006667 32.599,42.559 32.347,42.559 C32.151,42.559 31.9806667,42.5263333 31.836,42.461 C31.6913333,42.3956667 31.5723333,42.3081667 31.479,42.1985 C31.3856667,42.0888333 31.318,41.9628333 31.276,41.8205 C31.234,41.6781667 31.2153333,41.5276667 31.22,41.369 L33.929,41.369 C33.9383333,41.1496667 33.9185,40.9186667 33.8695,40.676 C33.8205,40.4333333 33.7318333,40.2093333 33.6035,40.004 C33.4751667,39.7986667 33.3048333,39.6295 33.0925,39.4965 C32.8801667,39.3635 32.613,39.297 32.291,39.297 C32.0436667,39.297 31.8161667,39.3436667 31.6085,39.437 C31.4008333,39.5303333 31.2211667,39.661 31.0695,39.829 C30.9178333,39.997 30.8,40.1953333 30.716,40.424 C30.632,40.6526667 30.59,40.9046667 30.59,41.18 C30.5993333,41.4553333 30.6401667,41.7096667 30.7125,41.943 C30.7848333,42.1763333 30.8933333,42.377 31.038,42.545 C31.1826667,42.713 31.3611667,42.8436667 31.5735,42.937 C31.7858333,43.0303333 32.0366667,43.077 32.326,43.077 Z M33.299,40.844 L31.22,40.844 C31.2293333,40.704 31.2596667,40.5721667 31.311,40.4485 C31.3623333,40.3248333 31.4323333,40.2163333 31.521,40.123 C31.6096667,40.0296667 31.7158333,39.9561667 31.8395,39.9025 C31.9631667,39.8488333 32.102,39.822 32.256,39.822 C32.4053333,39.822 32.5418333,39.8488333 32.6655,39.9025 C32.7891667,39.9561667 32.8965,40.0285 32.9875,40.1195 C33.0785,40.2105 33.1508333,40.319 33.2045,40.445 C33.2581667,40.571 33.2896667,40.704 33.299,40.844 Z" id="FirstName" fill="#7D8C94" fill-rule="nonzero"></path>
                <path d="M120.857,43 L120.857,42.44 L118.211,42.44 L118.211,38.002 L117.546,38.002 L117.546,43 L120.857,43 Z M124.119,43.077 C124.301,43.077 124.443333,43.0466667 124.546,42.986 L124.546,42.986 L124.546,42.524 C124.476,42.5473333 124.415333,42.559 124.364,42.559 C124.270667,42.559 124.215833,42.5263333 124.1995,42.461 C124.183167,42.3956667 124.175,42.293 124.175,42.153 L124.175,42.153 L124.175,40.291 C124.175,40.081 124.135333,39.9106667 124.056,39.78 C123.976667,39.6493333 123.871667,39.5478333 123.741,39.4755 C123.610333,39.4031667 123.4645,39.3553333 123.3035,39.332 C123.1425,39.3086667 122.980333,39.297 122.817,39.297 C122.611667,39.297 122.419167,39.318 122.2395,39.36 C122.059833,39.402 121.9,39.4708333 121.76,39.5665 C121.62,39.6621667 121.508,39.787 121.424,39.941 C121.34,40.095 121.293333,40.284 121.284,40.508 L121.284,40.508 L121.879,40.508 C121.893,40.242 121.984,40.0611667 122.152,39.9655 C122.32,39.8698333 122.53,39.822 122.782,39.822 C122.875333,39.822 122.969833,39.829 123.0655,39.843 C123.161167,39.857 123.2475,39.885 123.3245,39.927 C123.4015,39.969 123.4645,40.0296667 123.5135,40.109 C123.5625,40.1883333 123.587,40.2933333 123.587,40.424 C123.587,40.536 123.554333,40.6211667 123.489,40.6795 C123.423667,40.7378333 123.335,40.7821667 123.223,40.8125 C123.111,40.8428333 122.9815,40.8661667 122.8345,40.8825 C122.6875,40.8988333 122.532333,40.9233333 122.369,40.956 C122.215,40.984 122.0645,41.019 121.9175,41.061 C121.7705,41.103 121.639833,41.1648333 121.5255,41.2465 C121.411167,41.3281667 121.319,41.4343333 121.249,41.565 C121.179,41.6956667 121.144,41.8636667 121.144,42.069 C121.144,42.251 121.1755,42.4061667 121.2385,42.5345 C121.3015,42.6628333 121.386667,42.7666667 121.494,42.846 C121.601333,42.9253333 121.7285,42.9836667 121.8755,43.021 C122.0225,43.0583333 122.177667,43.077 122.341,43.077 C122.593,43.077 122.8275,43.0338333 123.0445,42.9475 C123.2615,42.8611667 123.451667,42.72 123.615,42.524 C123.615,42.72 123.6605,42.8611667 123.7515,42.9475 C123.8425,43.0338333 123.965,43.077 124.119,43.077 Z M122.474,42.559 C122.380667,42.559 122.292,42.5496667 122.208,42.531 C122.124,42.5123333 122.0505,42.482 121.9875,42.44 C121.9245,42.398 121.873167,42.3431667 121.8335,42.2755 C121.793833,42.2078333 121.774,42.125 121.774,42.027 C121.774,41.8776667 121.807833,41.7598333 121.8755,41.6735 C121.943167,41.5871667 122.030667,41.5206667 122.138,41.474 C122.245333,41.4273333 122.366667,41.3935 122.502,41.3725 C122.637333,41.3515 122.7715,41.3328333 122.9045,41.3165 C123.0375,41.3001667 123.164667,41.2791667 123.286,41.2535 C123.407333,41.2278333 123.505333,41.187 123.58,41.131 L123.58,41.131 L123.58,41.74 C123.58,41.824 123.559,41.9138333 123.517,42.0095 C123.475,42.1051667 123.409667,42.1938333 123.321,42.2755 C123.232333,42.3571667 123.118,42.4248333 122.978,42.4785 C122.838,42.5321667 122.67,42.559 122.474,42.559 Z M126.401,43.077 C126.583,43.077 126.766167,43.0595 126.9505,43.0245 C127.134833,42.9895 127.3005,42.9276667 127.4475,42.839 C127.5945,42.7503333 127.7135,42.6336667 127.8045,42.489 C127.8955,42.3443333 127.941,42.1623333 127.941,41.943 C127.941,41.7703333 127.907167,41.6256667 127.8395,41.509 C127.771833,41.3923333 127.683167,41.2955 127.5735,41.2185 C127.463833,41.1415 127.337833,41.0796667 127.1955,41.033 C127.053167,40.9863333 126.907333,40.9466667 126.758,40.914 C126.618,40.8813333 126.478,40.8498333 126.338,40.8195 C126.198,40.7891667 126.072,40.7518333 125.96,40.7075 C125.848,40.6631667 125.755833,40.6071667 125.6835,40.5395 C125.611167,40.4718333 125.575,40.3866667 125.575,40.284 C125.575,40.1906667 125.598333,40.1148333 125.645,40.0565 C125.691667,39.9981667 125.752333,39.9515 125.827,39.9165 C125.901667,39.8815 125.9845,39.857 126.0755,39.843 C126.1665,39.829 126.256333,39.822 126.345,39.822 C126.443,39.822 126.539833,39.8325 126.6355,39.8535 C126.731167,39.8745 126.818667,39.9083333 126.898,39.955 C126.977333,40.0016667 127.042667,40.0635 127.094,40.1405 C127.145333,40.2175 127.175667,40.3143333 127.185,40.431 L127.78,40.431 C127.766,40.2116667 127.719333,40.0285 127.64,39.8815 C127.560667,39.7345 127.4545,39.6178333 127.3215,39.5315 C127.1885,39.4451667 127.035667,39.3845 126.863,39.3495 C126.690333,39.3145 126.501333,39.297 126.296,39.297 C126.137333,39.297 125.9775,39.3168333 125.8165,39.3565 C125.6555,39.3961667 125.510833,39.4568333 125.3825,39.5385 C125.254167,39.6201667 125.149167,39.7263333 125.0675,39.857 C124.985833,39.9876667 124.945,40.144 124.945,40.326 C124.945,40.5593333 125.003333,40.7413333 125.12,40.872 C125.236667,41.0026667 125.3825,41.1041667 125.5575,41.1765 C125.7325,41.2488333 125.922667,41.3048333 126.128,41.3445 C126.333333,41.3841667 126.5235,41.4285 126.6985,41.4775 C126.8735,41.5265 127.019333,41.5906667 127.136,41.67 C127.252667,41.7493333 127.311,41.866 127.311,42.02 C127.311,42.132 127.283,42.2241667 127.227,42.2965 C127.171,42.3688333 127.099833,42.4236667 127.0135,42.461 C126.927167,42.4983333 126.832667,42.524 126.73,42.538 C126.627333,42.552 126.529333,42.559 126.436,42.559 C126.314667,42.559 126.196833,42.5473333 126.0825,42.524 C125.968167,42.5006667 125.8655,42.4621667 125.7745,42.4085 C125.6835,42.3548333 125.61,42.2825 125.554,42.1915 C125.498,42.1005 125.467667,41.9896667 125.463,41.859 L124.868,41.859 C124.877333,42.083 124.924,42.2731667 125.008,42.4295 C125.092,42.5858333 125.204,42.7118333 125.344,42.8075 C125.484,42.9031667 125.645,42.972 125.827,43.014 C126.009,43.056 126.200333,43.077 126.401,43.077 Z M130.146,43 L130.146,42.475 L129.873,42.475 C129.779667,42.475 129.703833,42.4715 129.6455,42.4645 C129.587167,42.4575 129.541667,42.4423333 129.509,42.419 C129.476333,42.3956667 129.454167,42.363 129.4425,42.321 C129.430833,42.279 129.425,42.223 129.425,42.153 L129.425,39.906 L130.146,39.906 L130.146,39.381 L129.425,39.381 L129.425,38.296 L128.83,38.296 L128.83,39.381 L128.214,39.381 L128.214,39.906 L128.83,39.906 L128.83,42.209 C128.83,42.377 128.846333,42.5123333 128.879,42.615 C128.911667,42.7176667 128.961833,42.797 129.0295,42.853 C129.097167,42.909 129.185833,42.9475 129.2955,42.9685 C129.405167,42.9895 129.537,43 129.691,43 L130.146,43 Z M133.471,43 L133.471,38.989 L133.485,38.989 L136.096,43 L136.824,43 L136.824,38.002 L136.194,38.002 L136.194,42.055 L136.18,42.055 L133.548,38.002 L132.841,38.002 L132.841,43 L133.471,43 Z M140.583,43.077 C140.765,43.077 140.907333,43.0466667 141.01,42.986 L141.01,42.986 L141.01,42.524 C140.94,42.5473333 140.879333,42.559 140.828,42.559 C140.734667,42.559 140.679833,42.5263333 140.6635,42.461 C140.647167,42.3956667 140.639,42.293 140.639,42.153 L140.639,42.153 L140.639,40.291 C140.639,40.081 140.599333,39.9106667 140.52,39.78 C140.440667,39.6493333 140.335667,39.5478333 140.205,39.4755 C140.074333,39.4031667 139.9285,39.3553333 139.7675,39.332 C139.6065,39.3086667 139.444333,39.297 139.281,39.297 C139.075667,39.297 138.883167,39.318 138.7035,39.36 C138.523833,39.402 138.364,39.4708333 138.224,39.5665 C138.084,39.6621667 137.972,39.787 137.888,39.941 C137.804,40.095 137.757333,40.284 137.748,40.508 L137.748,40.508 L138.343,40.508 C138.357,40.242 138.448,40.0611667 138.616,39.9655 C138.784,39.8698333 138.994,39.822 139.246,39.822 C139.339333,39.822 139.433833,39.829 139.5295,39.843 C139.625167,39.857 139.7115,39.885 139.7885,39.927 C139.8655,39.969 139.9285,40.0296667 139.9775,40.109 C140.0265,40.1883333 140.051,40.2933333 140.051,40.424 C140.051,40.536 140.018333,40.6211667 139.953,40.6795 C139.887667,40.7378333 139.799,40.7821667 139.687,40.8125 C139.575,40.8428333 139.4455,40.8661667 139.2985,40.8825 C139.1515,40.8988333 138.996333,40.9233333 138.833,40.956 C138.679,40.984 138.5285,41.019 138.3815,41.061 C138.2345,41.103 138.103833,41.1648333 137.9895,41.2465 C137.875167,41.3281667 137.783,41.4343333 137.713,41.565 C137.643,41.6956667 137.608,41.8636667 137.608,42.069 C137.608,42.251 137.6395,42.4061667 137.7025,42.5345 C137.7655,42.6628333 137.850667,42.7666667 137.958,42.846 C138.065333,42.9253333 138.1925,42.9836667 138.3395,43.021 C138.4865,43.0583333 138.641667,43.077 138.805,43.077 C139.057,43.077 139.2915,43.0338333 139.5085,42.9475 C139.7255,42.8611667 139.915667,42.72 140.079,42.524 C140.079,42.72 140.1245,42.8611667 140.2155,42.9475 C140.3065,43.0338333 140.429,43.077 140.583,43.077 Z M138.938,42.559 C138.844667,42.559 138.756,42.5496667 138.672,42.531 C138.588,42.5123333 138.5145,42.482 138.4515,42.44 C138.3885,42.398 138.337167,42.3431667 138.2975,42.2755 C138.257833,42.2078333 138.238,42.125 138.238,42.027 C138.238,41.8776667 138.271833,41.7598333 138.3395,41.6735 C138.407167,41.5871667 138.494667,41.5206667 138.602,41.474 C138.709333,41.4273333 138.830667,41.3935 138.966,41.3725 C139.101333,41.3515 139.2355,41.3328333 139.3685,41.3165 C139.5015,41.3001667 139.628667,41.2791667 139.75,41.2535 C139.871333,41.2278333 139.969333,41.187 140.044,41.131 L140.044,41.131 L140.044,41.74 C140.044,41.824 140.023,41.9138333 139.981,42.0095 C139.939,42.1051667 139.873667,42.1938333 139.785,42.2755 C139.696333,42.3571667 139.582,42.4248333 139.442,42.4785 C139.302,42.5321667 139.134,42.559 138.938,42.559 Z M142.158,43 L142.158,40.746 C142.158,40.676 142.1755,40.5885 142.2105,40.4835 C142.2455,40.3785 142.3015,40.277 142.3785,40.179 C142.4555,40.081 142.555833,39.997 142.6795,39.927 C142.803167,39.857 142.951333,39.822 143.124,39.822 C143.259333,39.822 143.370167,39.8418333 143.4565,39.8815 C143.542833,39.9211667 143.611667,39.9771667 143.663,40.0495 C143.714333,40.1218333 143.7505,40.207 143.7715,40.305 C143.7925,40.403 143.803,40.5103333 143.803,40.627 L143.803,43 L144.398,43 L144.398,40.746 C144.398,40.466 144.482,40.242 144.65,40.074 C144.818,39.906 145.049,39.822 145.343,39.822 C145.487667,39.822 145.6055,39.843 145.6965,39.885 C145.7875,39.927 145.858667,39.9841667 145.91,40.0565 C145.961333,40.1288333 145.996333,40.214 146.015,40.312 C146.033667,40.41 146.043,40.515 146.043,40.627 L146.043,43 L146.638,43 L146.638,40.347 C146.638,40.1603333 146.608833,40.0005 146.5505,39.8675 C146.492167,39.7345 146.4105,39.626 146.3055,39.542 C146.2005,39.458 146.0745,39.3961667 145.9275,39.3565 C145.7805,39.3168333 145.616,39.297 145.434,39.297 C145.196,39.297 144.977833,39.3506667 144.7795,39.458 C144.581167,39.5653333 144.421333,39.717 144.3,39.913 C144.225333,39.689 144.097,39.5303333 143.915,39.437 C143.733,39.3436667 143.53,39.297 143.306,39.297 C142.797333,39.297 142.407667,39.5023333 142.137,39.913 L142.123,39.913 L142.123,39.381 L141.563,39.381 L141.563,43 L142.158,43 Z M149.074,43.077 C149.484667,43.077 149.825333,42.9743333 150.096,42.769 C150.366667,42.5636667 150.541667,42.258 150.621,41.852 L150.033,41.852 C149.981667,42.09 149.8755,42.2673333 149.7145,42.384 C149.5535,42.5006667 149.347,42.559 149.095,42.559 C148.899,42.559 148.728667,42.5263333 148.584,42.461 C148.439333,42.3956667 148.320333,42.3081667 148.227,42.1985 C148.133667,42.0888333 148.066,41.9628333 148.024,41.8205 C147.982,41.6781667 147.963333,41.5276667 147.968,41.369 L150.677,41.369 C150.686333,41.1496667 150.6665,40.9186667 150.6175,40.676 C150.5685,40.4333333 150.479833,40.2093333 150.3515,40.004 C150.223167,39.7986667 150.052833,39.6295 149.8405,39.4965 C149.628167,39.3635 149.361,39.297 149.039,39.297 C148.791667,39.297 148.564167,39.3436667 148.3565,39.437 C148.148833,39.5303333 147.969167,39.661 147.8175,39.829 C147.665833,39.997 147.548,40.1953333 147.464,40.424 C147.38,40.6526667 147.338,40.9046667 147.338,41.18 C147.347333,41.4553333 147.388167,41.7096667 147.4605,41.943 C147.532833,42.1763333 147.641333,42.377 147.786,42.545 C147.930667,42.713 148.109167,42.8436667 148.3215,42.937 C148.533833,43.0303333 148.784667,43.077 149.074,43.077 Z M150.047,40.844 L147.968,40.844 C147.977333,40.704 148.007667,40.5721667 148.059,40.4485 C148.110333,40.3248333 148.180333,40.2163333 148.269,40.123 C148.357667,40.0296667 148.463833,39.9561667 148.5875,39.9025 C148.711167,39.8488333 148.85,39.822 149.004,39.822 C149.153333,39.822 149.289833,39.8488333 149.4135,39.9025 C149.537167,39.9561667 149.6445,40.0285 149.7355,40.1195 C149.8265,40.2105 149.898833,40.319 149.9525,40.445 C150.006167,40.571 150.037667,40.704 150.047,40.844 Z" id="LastName" fill="#7D8C94" fill-rule="nonzero"></path>
                <rect id="Rectangle" fill="#EDF2F5" x="117" y="14.2105263" width="107.171053" height="20" rx="3"></rect>
            </g>
            <g id="Form-Field/Text-Field" transform="translate(23.000000, 130.000000)">
                <text id="Text-Label" font-family="HelveticaNeue-Medium, Helvetica Neue" font-size="8" font-weight="400" fill="#162731">
                    <tspan x="0" y="8">Email Address*</tspan>
                </text>
                <rect id="Rectangle-Copy" fill="#EDF2F5" x="0" y="14.6578947" width="225" height="20" rx="3"></rect>
            </g>
            <g id="Button" transform="translate(0.000000, 316.000000)">
                <rect id="Rectangle-Copy-5" fill="#576696" x="23" y="0" width="225" height="30" rx="3"></rect>
                <text id="Continue" font-family="HelveticaNeue-Medium, Helvetica Neue" font-size="10" font-weight="400" fill="#FFFFFF">
                    <tspan x="114.165" y="18">Continue</tspan>
                </text>
            </g>
            <g id="Form-Field/Date" transform="translate(23.000000, 176.000000)">
                <text id="Text-Label" font-family="HelveticaNeue-Medium, Helvetica Neue" font-size="8" font-weight="400" fill="#162731">
                    <tspan x="0" y="8">Date of Birth*</tspan>
                </text>
                <g id="Day" transform="translate(0.000000, 14.657895)">
                    <rect id="Rectangle" fill="#EDF2F5" x="0" y="0" width="36" height="20" rx="3"></rect>
                    <g id="Picker" transform="translate(28.000000, 6.342105)" fill="#15232B">
                        <path d="M2.14142136,0.141421356 L3.65857864,1.65857864 C3.7366835,1.7366835 3.7366835,1.8633165 3.65857864,1.94142136 C3.62107137,1.97892863 3.57020059,2 3.51715729,2 L0.482842712,2 C0.372385763,2 0.282842712,1.91045695 0.282842712,1.8 C0.282842712,1.7469567 0.303914081,1.69608592 0.341421356,1.65857864 L1.85857864,0.141421356 C1.9366835,0.0633164979 2.0633165,0.0633164979 2.14142136,0.141421356 Z" id="Triangle"></path>
                        <path d="M2.14142136,4.14142136 L3.65857864,5.65857864 C3.7366835,5.7366835 3.7366835,5.8633165 3.65857864,5.94142136 C3.62107137,5.97892863 3.57020059,6 3.51715729,6 L0.482842712,6 C0.372385763,6 0.282842712,5.91045695 0.282842712,5.8 C0.282842712,5.7469567 0.303914081,5.69608592 0.341421356,5.65857864 L1.85857864,4.14142136 C1.9366835,4.0633165 2.0633165,4.0633165 2.14142136,4.14142136 Z" id="Triangle-Copy" transform="translate(2.000000, 5.000000) scale(1, -1) translate(-2.000000, -5.000000) "></path>
                    </g>
                </g>
                <g id="Month" transform="translate(46.000000, 14.657895)">
                    <rect id="Rectangle" fill="#EDF2F5" x="0" y="0" width="36" height="20" rx="3"></rect>
                    <g id="Picker" transform="translate(28.000000, 6.342105)" fill="#15232B">
                        <path d="M2.14142136,0.141421356 L3.65857864,1.65857864 C3.7366835,1.7366835 3.7366835,1.8633165 3.65857864,1.94142136 C3.62107137,1.97892863 3.57020059,2 3.51715729,2 L0.482842712,2 C0.372385763,2 0.282842712,1.91045695 0.282842712,1.8 C0.282842712,1.7469567 0.303914081,1.69608592 0.341421356,1.65857864 L1.85857864,0.141421356 C1.9366835,0.0633164979 2.0633165,0.0633164979 2.14142136,0.141421356 Z" id="Triangle"></path>
                        <path d="M2.14142136,4.14142136 L3.65857864,5.65857864 C3.7366835,5.7366835 3.7366835,5.8633165 3.65857864,5.94142136 C3.62107137,5.97892863 3.57020059,6 3.51715729,6 L0.482842712,6 C0.372385763,6 0.282842712,5.91045695 0.282842712,5.8 C0.282842712,5.7469567 0.303914081,5.69608592 0.341421356,5.65857864 L1.85857864,4.14142136 C1.9366835,4.0633165 2.0633165,4.0633165 2.14142136,4.14142136 Z" id="Triangle-Copy" transform="translate(2.000000, 5.000000) scale(1, -1) translate(-2.000000, -5.000000) "></path>
                    </g>
                </g>
                <g id="Year" transform="translate(92.000000, 14.657895)">
                    <rect id="Rectangle" fill="#EDF2F5" x="0" y="0" width="36" height="20" rx="3"></rect>
                    <g id="Picker" transform="translate(28.000000, 6.342105)" fill="#15232B">
                        <path d="M2.14142136,0.141421356 L3.65857864,1.65857864 C3.7366835,1.7366835 3.7366835,1.8633165 3.65857864,1.94142136 C3.62107137,1.97892863 3.57020059,2 3.51715729,2 L0.482842712,2 C0.372385763,2 0.282842712,1.91045695 0.282842712,1.8 C0.282842712,1.7469567 0.303914081,1.69608592 0.341421356,1.65857864 L1.85857864,0.141421356 C1.9366835,0.0633164979 2.0633165,0.0633164979 2.14142136,0.141421356 Z" id="Triangle"></path>
                        <path d="M2.14142136,4.14142136 L3.65857864,5.65857864 C3.7366835,5.7366835 3.7366835,5.8633165 3.65857864,5.94142136 C3.62107137,5.97892863 3.57020059,6 3.51715729,6 L0.482842712,6 C0.372385763,6 0.282842712,5.91045695 0.282842712,5.8 C0.282842712,5.7469567 0.303914081,5.69608592 0.341421356,5.65857864 L1.85857864,4.14142136 C1.9366835,4.0633165 2.0633165,4.0633165 2.14142136,4.14142136 Z" id="Triangle-Copy" transform="translate(2.000000, 5.000000) scale(1, -1) translate(-2.000000, -5.000000) "></path>
                    </g>
                </g>
                <path d="M138.781244,19 C138.597156,19 138.447911,19.1459891 138.447911,19.3260869 L138.447911,20.5794779 C138.061389,20.7151735 137.781244,21.0777822 137.781244,21.5 C137.781244,22.0364124 138.232922,22.4782601 138.781244,22.4782601 C139.329578,22.4782601 139.781244,22.0364124 139.781244,21.5 C139.781244,21.0782387 139.500456,20.7155214 139.114578,20.5794779 L139.114578,19.3260869 C139.114578,19.1459891 138.965333,19 138.781244,19 Z M143.225689,19 C143.0416,19 142.892356,19.1459891 142.892356,19.3260869 L142.892356,20.5794779 C142.505833,20.7151735 142.225689,21.0777822 142.225689,21.5 C142.225689,22.0364124 142.677367,22.4782601 143.225689,22.4782601 C143.774022,22.4782601 144.225689,22.0364124 144.225689,21.5 C144.225689,21.0782387 143.9449,20.7155214 143.559022,20.5794779 L143.559022,19.3260869 C143.559022,19.1459891 143.409778,19 143.225689,19 Z M137.225689,19.6521457 C136.552489,19.6521457 136,20.1926628 136,20.851217 L136,27.8009459 C136,28.459511 136.5525,29 137.225689,29 L144.774311,29 C145.4475,29 146,28.459511 146,27.8009459 L146,20.851217 C146,20.1926628 145.447489,19.6521457 144.774311,19.6521457 L144.111111,19.6521457 C143.935011,19.6497825 143.770833,19.8059672 143.770833,19.9782607 C143.770833,20.1505541 143.935011,20.3067823 144.111111,20.3043475 L144.774311,20.3043475 C145.089056,20.3043475 145.333333,20.5432931 145.333333,20.851217 L145.333333,22.6956514 L136.666667,22.6956514 L136.666667,20.851217 C136.666667,20.5432931 136.910933,20.3043475 137.225689,20.3043475 L137.888889,20.3043475 C138.064989,20.3067388 138.225689,20.1505541 138.225689,19.9782607 C138.225689,19.8059672 138.064989,19.649739 137.888889,19.6521457 L137.225689,19.6521457 Z M139.666667,19.6521738 C139.482567,19.6521738 139.333333,19.7981629 139.333333,19.9782607 C139.333333,20.1583476 139.482567,20.3043475 139.666667,20.3043475 L142.333333,20.3043475 C142.517433,20.3043475 142.666667,20.1583476 142.666667,19.9782607 C142.666667,19.7981629 142.517433,19.6521738 142.333333,19.6521738 L139.666667,19.6521738 Z M138.781244,21.1739126 C138.969289,21.1739126 139.114578,21.316043 139.114578,21.4999995 C139.114578,21.6839559 138.969289,21.8260863 138.781244,21.8260863 C138.593211,21.8260863 138.447911,21.6839559 138.447911,21.4999995 C138.447911,21.316043 138.593211,21.1739126 138.781244,21.1739126 Z M143.225689,21.1739126 C143.413733,21.1739126 143.559022,21.316043 143.559022,21.4999995 C143.559022,21.6839559 143.413733,21.8260863 143.225689,21.8260863 C143.037656,21.8260863 142.892356,21.6839559 142.892356,21.4999995 C142.892356,21.316043 143.037656,21.1739126 143.225689,21.1739126 Z M136.666667,23.3478251 L145.333333,23.3478251 L145.333333,27.8009459 C145.333333,28.1088698 145.089056,28.3478251 144.774311,28.3478251 L137.225689,28.3478251 C136.910922,28.3478251 136.666667,28.1088698 136.666667,27.8009459 L136.666667,23.3478251 Z" id="Shape" fill="#000000" fill-rule="nonzero"></path>
            </g>
            <g id="Form-Field/Text-Field" transform="translate(23.000000, 222.000000)">
                <text id="Text-Label" font-family="HelveticaNeue-Medium, Helvetica Neue" font-size="8" font-weight="400" fill="#162731">
                    <tspan x="0" y="8">Phone Number*</tspan>
                </text>
                <rect id="Rectangle-Copy" fill="#EDF2F5" x="0" y="14.6578947" width="225" height="20" rx="3"></rect>
            </g>
            <text id="5k-Registration" font-family="HelveticaNeue-Medium, Helvetica Neue" font-size="10" font-weight="400" fill="#070707">
                <tspan x="100.17" y="62">5k Registration</tspan>
            </text>
            <g id="Form-Field/Dropdown" transform="translate(23.000000, 268.000000)">
                <g id="Dropdown" transform="translate(0.000000, 15.000000)">
                    <rect id="BG" fill="#EDF2F5" x="0" y="0" width="225" height="20" rx="3"></rect>
                    <g id="Arrows" transform="translate(215.000000, 7.000000)" fill="#15232B">
                        <path d="M2.14142136,0.141421356 L3.65857864,1.65857864 C3.7366835,1.7366835 3.7366835,1.8633165 3.65857864,1.94142136 C3.62107137,1.97892863 3.57020059,2 3.51715729,2 L0.482842712,2 C0.372385763,2 0.282842712,1.91045695 0.282842712,1.8 C0.282842712,1.7469567 0.303914081,1.69608592 0.341421356,1.65857864 L1.85857864,0.141421356 C1.9366835,0.0633164979 2.0633165,0.0633164979 2.14142136,0.141421356 Z" id="Triangle"></path>
                        <path d="M2.14142136,4.14142136 L3.65857864,5.65857864 C3.7366835,5.7366835 3.7366835,5.8633165 3.65857864,5.94142136 C3.62107137,5.97892863 3.57020059,6 3.51715729,6 L0.482842712,6 C0.372385763,6 0.282842712,5.91045695 0.282842712,5.8 C0.282842712,5.7469567 0.303914081,5.69608592 0.341421356,5.65857864 L1.85857864,4.14142136 C1.9366835,4.0633165 2.0633165,4.0633165 2.14142136,4.14142136 Z" id="Triangle-Copy" transform="translate(2.000000, 5.000000) scale(1, -1) translate(-2.000000, -5.000000) "></path>
                    </g>
                    <text id="Choose-One" font-family="HelveticaNeue, Helvetica Neue" font-size="7" font-weight="normal" fill="#7D8C94">
                        <tspan x="8" y="12">Choose One</tspan>
                    </text>
                </g>
                <text id="Text-Label" font-family="HelveticaNeue-Medium, Helvetica Neue" font-size="8" font-weight="400" fill="#162731">
                    <tspan x="0" y="8">Will you be running or walking?</tspan>
                </text>
            </g>
            <g id="Logo" transform="translate(94.000000, 16.000000)" fill="#576696">
                <g id="Symbol">
                    <path d="M2.9062,19.345 L1.8746,19.345 C1.0198,19.345 0.3266,18.6518 0.3266,17.797 L0.3266,6.9306 C0.3266,6.0758 1.0198,5.3826 1.8746,5.3826 L2.7366,5.3826 C3.5914,5.3826 4.2846,6.0758 4.2846,6.9306 L4.2846,17.9666 C4.2846,18.7278 3.6674,19.345 2.9062,19.345" id="Fill-2"></path>
                    <path d="M24.6442,24.7274 L23.6126,24.7274 C22.7578,24.7274 22.0646,24.0342 22.0646,23.1794 L22.0646,1.5482 C22.0646,0.6934 22.7578,0.0002 23.6126,0.0002 L24.4746,0.0002 C25.3294,0.0002 26.0226,0.6934 26.0226,1.5482 L26.0226,23.349 C26.0226,24.1102 25.4054,24.7274 24.6442,24.7274" id="Fill-4"></path>
                    <path d="M10.1522,24.7274 L9.1206,24.7274 C8.2658,24.7274 7.5726,24.0342 7.5726,23.1794 L7.5726,1.5482 C7.5726,0.6934 8.2658,0.0002 9.1206,0.0002 L9.9826,0.0002 C10.8374,0.0002 11.5306,0.6934 11.5306,1.5482 L11.5306,23.349 C11.5306,24.1102 10.9134,24.7274 10.1522,24.7274" id="Fill-6"></path>
                    <path d="M31.8902,19.345 L30.8586,19.345 C30.0038,19.345 29.3106,18.6518 29.3106,17.797 L29.3106,6.9306 C29.3106,6.0758 30.0038,5.3826 30.8586,5.3826 L31.7206,5.3826 C32.5754,5.3826 33.2686,6.0758 33.2686,6.9306 L33.2686,17.9666 C33.2686,18.7278 32.6514,19.345 31.8902,19.345" id="Fill-8"></path>
                    <path d="M17.3982,19.78288 L16.3666,19.78288 C15.5118,19.78288 14.8186,19.08968 14.8186,18.23488 L14.8186,7.67688 C14.8186,6.82168 15.5118,6.12888 16.3666,6.12888 L17.2286,6.12888 C18.0834,6.12888 18.7766,6.82168 18.7766,7.67688 L18.7766,18.40448 C18.7766,19.16568 18.1594,19.78288 17.3982,19.78288" id="Fill-10"></path>
                </g>
                <path d="M42.1264,17.6 L42.1264,16.5024 L45.7328,10.9584 L42.16,10.9584 L42.16,9.76 L47.3904,9.76 L47.3904,10.8576 L43.7616,16.4016 L47.4128,16.4016 L47.4128,17.6 L42.1264,17.6 Z M52.2008,17.6 L52.2008,9.76 L57.3192,9.76 L57.3192,10.9136 L53.6344,10.9136 L53.6344,13.064 L56.9832,13.064 L56.9832,14.184 L53.6344,14.184 L53.6344,16.4464 L57.3192,16.4464 L57.3192,17.6 L52.2008,17.6 Z M62.1744,17.6 L62.1744,9.76 L63.8768,9.76 L66.3744,14.7328 L68.8384,9.76 L70.5408,9.76 L70.5408,17.6 L69.1072,17.6 L69.1072,12.1904 L66.9232,16.48 L65.792,16.48 L63.608,12.1904 L63.608,17.6 L62.1744,17.6 Z M75.564,17.6 L75.564,9.76 L78.4424,9.76 C79.0696031,9.76 79.5866646,9.86639894 79.9936,10.0792 C80.4005354,10.2920011 80.704799,10.5794649 80.9064,10.9416 C81.108001,11.3037351 81.2088,11.7050645 81.2088,12.1456 C81.2088,12.6234691 81.0837346,13.0602647 80.8336,13.456 C80.5834654,13.8517353 80.193336,14.1391991 79.6632,14.3184 L81.2872,17.6 L79.6408,17.6 L78.1848,14.5088 L76.9976,14.5088 L76.9976,17.6 L75.564,17.6 Z M76.9976,13.456 L78.3528,13.456 C78.8306691,13.456 79.1815989,13.3402678 79.4056,13.1088 C79.6296011,12.8773322 79.7416,12.5712019 79.7416,12.1904 C79.7416,11.8170648 79.6314678,11.5184011 79.4112,11.2944 C79.1909322,11.0703989 78.8344025,10.9584 78.3416,10.9584 L76.9976,10.9584 L76.9976,13.456 Z" id="ZEMR" fill-rule="nonzero"></path>
            </g>
        </g>
        <g id="Direct-Deposit-Enrollment" filter="url(#filter-2)" transform="translate(69.000000, 45.000000)">
            <rect id="Rectangle" fill="#FFFFFF" x="0" y="0" width="270" height="361" rx="3"></rect>
            <g id="Form-Field/Name" transform="translate(23.000000, 75.000000)">
                <rect id="Rectangle" fill="#EDF2F5" x="1.42108547e-13" y="14.2105263" width="107.171053" height="20" rx="3"></rect>
                <text id="Name" font-family="HelveticaNeue-Medium, Helvetica Neue" font-size="8" font-weight="400" fill="#162731">
                    <tspan x="0" y="8">Name*</tspan>
                </text>
                <path d="M1.211,43 L1.211,40.711 L3.507,40.711 L3.507,40.151 L1.211,40.151 L1.211,38.562 L3.829,38.562 L3.829,38.002 L0.546,38.002 L0.546,43 L1.211,43 Z M5.096,38.73 L5.096,38.002 L4.501,38.002 L4.501,38.73 L5.096,38.73 Z M5.096,43 L5.096,39.381 L4.501,39.381 L4.501,43 L5.096,43 Z M6.594,43 L6.594,41.39 C6.594,41.1566667 6.61733333,40.9501667 6.664,40.7705 C6.71066667,40.5908333 6.78533333,40.438 6.888,40.312 C6.99066667,40.186 7.126,40.0903333 7.294,40.025 C7.462,39.9596667 7.665,39.927 7.903,39.927 L7.903,39.297 C7.581,39.2876667 7.315,39.353 7.105,39.493 C6.895,39.633 6.71766667,39.85 6.573,40.144 L6.559,40.144 L6.559,39.381 L5.999,39.381 L5.999,43 L6.594,43 Z M9.653,43.077 C9.835,43.077 10.0181667,43.0595 10.2025,43.0245 C10.3868333,42.9895 10.5525,42.9276667 10.6995,42.839 C10.8465,42.7503333 10.9655,42.6336667 11.0565,42.489 C11.1475,42.3443333 11.193,42.1623333 11.193,41.943 C11.193,41.7703333 11.1591667,41.6256667 11.0915,41.509 C11.0238333,41.3923333 10.9351667,41.2955 10.8255,41.2185 C10.7158333,41.1415 10.5898333,41.0796667 10.4475,41.033 C10.3051667,40.9863333 10.1593333,40.9466667 10.01,40.914 C9.87,40.8813333 9.73,40.8498333 9.59,40.8195 C9.45,40.7891667 9.324,40.7518333 9.212,40.7075 C9.1,40.6631667 9.00783333,40.6071667 8.9355,40.5395 C8.86316667,40.4718333 8.827,40.3866667 8.827,40.284 C8.827,40.1906667 8.85033333,40.1148333 8.897,40.0565 C8.94366667,39.9981667 9.00433333,39.9515 9.079,39.9165 C9.15366667,39.8815 9.2365,39.857 9.3275,39.843 C9.4185,39.829 9.50833333,39.822 9.597,39.822 C9.695,39.822 9.79183333,39.8325 9.8875,39.8535 C9.98316667,39.8745 10.0706667,39.9083333 10.15,39.955 C10.2293333,40.0016667 10.2946667,40.0635 10.346,40.1405 C10.3973333,40.2175 10.4276667,40.3143333 10.437,40.431 L11.032,40.431 C11.018,40.2116667 10.9713333,40.0285 10.892,39.8815 C10.8126667,39.7345 10.7065,39.6178333 10.5735,39.5315 C10.4405,39.4451667 10.2876667,39.3845 10.115,39.3495 C9.94233333,39.3145 9.75333333,39.297 9.548,39.297 C9.38933333,39.297 9.2295,39.3168333 9.0685,39.3565 C8.9075,39.3961667 8.76283333,39.4568333 8.6345,39.5385 C8.50616667,39.6201667 8.40116667,39.7263333 8.3195,39.857 C8.23783333,39.9876667 8.197,40.144 8.197,40.326 C8.197,40.5593333 8.25533333,40.7413333 8.372,40.872 C8.48866667,41.0026667 8.6345,41.1041667 8.8095,41.1765 C8.9845,41.2488333 9.17466667,41.3048333 9.38,41.3445 C9.58533333,41.3841667 9.7755,41.4285 9.9505,41.4775 C10.1255,41.5265 10.2713333,41.5906667 10.388,41.67 C10.5046667,41.7493333 10.563,41.866 10.563,42.02 C10.563,42.132 10.535,42.2241667 10.479,42.2965 C10.423,42.3688333 10.3518333,42.4236667 10.2655,42.461 C10.1791667,42.4983333 10.0846667,42.524 9.982,42.538 C9.87933333,42.552 9.78133333,42.559 9.688,42.559 C9.56666667,42.559 9.44883333,42.5473333 9.3345,42.524 C9.22016667,42.5006667 9.1175,42.4621667 9.0265,42.4085 C8.9355,42.3548333 8.862,42.2825 8.806,42.1915 C8.75,42.1005 8.71966667,41.9896667 8.715,41.859 L8.12,41.859 C8.12933333,42.083 8.176,42.2731667 8.26,42.4295 C8.344,42.5858333 8.456,42.7118333 8.596,42.8075 C8.736,42.9031667 8.897,42.972 9.079,43.014 C9.261,43.056 9.45233333,43.077 9.653,43.077 Z M13.398,43 L13.398,42.475 L13.125,42.475 C13.0316667,42.475 12.9558333,42.4715 12.8975,42.4645 C12.8391667,42.4575 12.7936667,42.4423333 12.761,42.419 C12.7283333,42.3956667 12.7061667,42.363 12.6945,42.321 C12.6828333,42.279 12.677,42.223 12.677,42.153 L12.677,39.906 L13.398,39.906 L13.398,39.381 L12.677,39.381 L12.677,38.296 L12.082,38.296 L12.082,39.381 L11.466,39.381 L11.466,39.906 L12.082,39.906 L12.082,42.209 C12.082,42.377 12.0983333,42.5123333 12.131,42.615 C12.1636667,42.7176667 12.2138333,42.797 12.2815,42.853 C12.3491667,42.909 12.4378333,42.9475 12.5475,42.9685 C12.6571667,42.9895 12.789,43 12.943,43 L13.398,43 Z M16.723,43 L16.723,38.989 L16.737,38.989 L19.348,43 L20.076,43 L20.076,38.002 L19.446,38.002 L19.446,42.055 L19.432,42.055 L16.8,38.002 L16.093,38.002 L16.093,43 L16.723,43 Z M23.835,43.077 C24.017,43.077 24.1593333,43.0466667 24.262,42.986 L24.262,42.986 L24.262,42.524 C24.192,42.5473333 24.1313333,42.559 24.08,42.559 C23.9866667,42.559 23.9318333,42.5263333 23.9155,42.461 C23.8991667,42.3956667 23.891,42.293 23.891,42.153 L23.891,42.153 L23.891,40.291 C23.891,40.081 23.8513333,39.9106667 23.772,39.78 C23.6926667,39.6493333 23.5876667,39.5478333 23.457,39.4755 C23.3263333,39.4031667 23.1805,39.3553333 23.0195,39.332 C22.8585,39.3086667 22.6963333,39.297 22.533,39.297 C22.3276667,39.297 22.1351667,39.318 21.9555,39.36 C21.7758333,39.402 21.616,39.4708333 21.476,39.5665 C21.336,39.6621667 21.224,39.787 21.14,39.941 C21.056,40.095 21.0093333,40.284 21,40.508 L21,40.508 L21.595,40.508 C21.609,40.242 21.7,40.0611667 21.868,39.9655 C22.036,39.8698333 22.246,39.822 22.498,39.822 C22.5913333,39.822 22.6858333,39.829 22.7815,39.843 C22.8771667,39.857 22.9635,39.885 23.0405,39.927 C23.1175,39.969 23.1805,40.0296667 23.2295,40.109 C23.2785,40.1883333 23.303,40.2933333 23.303,40.424 C23.303,40.536 23.2703333,40.6211667 23.205,40.6795 C23.1396667,40.7378333 23.051,40.7821667 22.939,40.8125 C22.827,40.8428333 22.6975,40.8661667 22.5505,40.8825 C22.4035,40.8988333 22.2483333,40.9233333 22.085,40.956 C21.931,40.984 21.7805,41.019 21.6335,41.061 C21.4865,41.103 21.3558333,41.1648333 21.2415,41.2465 C21.1271667,41.3281667 21.035,41.4343333 20.965,41.565 C20.895,41.6956667 20.86,41.8636667 20.86,42.069 C20.86,42.251 20.8915,42.4061667 20.9545,42.5345 C21.0175,42.6628333 21.1026667,42.7666667 21.21,42.846 C21.3173333,42.9253333 21.4445,42.9836667 21.5915,43.021 C21.7385,43.0583333 21.8936667,43.077 22.057,43.077 C22.309,43.077 22.5435,43.0338333 22.7605,42.9475 C22.9775,42.8611667 23.1676667,42.72 23.331,42.524 C23.331,42.72 23.3765,42.8611667 23.4675,42.9475 C23.5585,43.0338333 23.681,43.077 23.835,43.077 Z M22.19,42.559 C22.0966667,42.559 22.008,42.5496667 21.924,42.531 C21.84,42.5123333 21.7665,42.482 21.7035,42.44 C21.6405,42.398 21.5891667,42.3431667 21.5495,42.2755 C21.5098333,42.2078333 21.49,42.125 21.49,42.027 C21.49,41.8776667 21.5238333,41.7598333 21.5915,41.6735 C21.6591667,41.5871667 21.7466667,41.5206667 21.854,41.474 C21.9613333,41.4273333 22.0826667,41.3935 22.218,41.3725 C22.3533333,41.3515 22.4875,41.3328333 22.6205,41.3165 C22.7535,41.3001667 22.8806667,41.2791667 23.002,41.2535 C23.1233333,41.2278333 23.2213333,41.187 23.296,41.131 L23.296,41.131 L23.296,41.74 C23.296,41.824 23.275,41.9138333 23.233,42.0095 C23.191,42.1051667 23.1256667,42.1938333 23.037,42.2755 C22.9483333,42.3571667 22.834,42.4248333 22.694,42.4785 C22.554,42.5321667 22.386,42.559 22.19,42.559 Z M25.41,43 L25.41,40.746 C25.41,40.676 25.4275,40.5885 25.4625,40.4835 C25.4975,40.3785 25.5535,40.277 25.6305,40.179 C25.7075,40.081 25.8078333,39.997 25.9315,39.927 C26.0551667,39.857 26.2033333,39.822 26.376,39.822 C26.5113333,39.822 26.6221667,39.8418333 26.7085,39.8815 C26.7948333,39.9211667 26.8636667,39.9771667 26.915,40.0495 C26.9663333,40.1218333 27.0025,40.207 27.0235,40.305 C27.0445,40.403 27.055,40.5103333 27.055,40.627 L27.055,43 L27.65,43 L27.65,40.746 C27.65,40.466 27.734,40.242 27.902,40.074 C28.07,39.906 28.301,39.822 28.595,39.822 C28.7396667,39.822 28.8575,39.843 28.9485,39.885 C29.0395,39.927 29.1106667,39.9841667 29.162,40.0565 C29.2133333,40.1288333 29.2483333,40.214 29.267,40.312 C29.2856667,40.41 29.295,40.515 29.295,40.627 L29.295,43 L29.89,43 L29.89,40.347 C29.89,40.1603333 29.8608333,40.0005 29.8025,39.8675 C29.7441667,39.7345 29.6625,39.626 29.5575,39.542 C29.4525,39.458 29.3265,39.3961667 29.1795,39.3565 C29.0325,39.3168333 28.868,39.297 28.686,39.297 C28.448,39.297 28.2298333,39.3506667 28.0315,39.458 C27.8331667,39.5653333 27.6733333,39.717 27.552,39.913 C27.4773333,39.689 27.349,39.5303333 27.167,39.437 C26.985,39.3436667 26.782,39.297 26.558,39.297 C26.0493333,39.297 25.6596667,39.5023333 25.389,39.913 L25.375,39.913 L25.375,39.381 L24.815,39.381 L24.815,43 L25.41,43 Z M32.326,43.077 C32.7366667,43.077 33.0773333,42.9743333 33.348,42.769 C33.6186667,42.5636667 33.7936667,42.258 33.873,41.852 L33.285,41.852 C33.2336667,42.09 33.1275,42.2673333 32.9665,42.384 C32.8055,42.5006667 32.599,42.559 32.347,42.559 C32.151,42.559 31.9806667,42.5263333 31.836,42.461 C31.6913333,42.3956667 31.5723333,42.3081667 31.479,42.1985 C31.3856667,42.0888333 31.318,41.9628333 31.276,41.8205 C31.234,41.6781667 31.2153333,41.5276667 31.22,41.369 L33.929,41.369 C33.9383333,41.1496667 33.9185,40.9186667 33.8695,40.676 C33.8205,40.4333333 33.7318333,40.2093333 33.6035,40.004 C33.4751667,39.7986667 33.3048333,39.6295 33.0925,39.4965 C32.8801667,39.3635 32.613,39.297 32.291,39.297 C32.0436667,39.297 31.8161667,39.3436667 31.6085,39.437 C31.4008333,39.5303333 31.2211667,39.661 31.0695,39.829 C30.9178333,39.997 30.8,40.1953333 30.716,40.424 C30.632,40.6526667 30.59,40.9046667 30.59,41.18 C30.5993333,41.4553333 30.6401667,41.7096667 30.7125,41.943 C30.7848333,42.1763333 30.8933333,42.377 31.038,42.545 C31.1826667,42.713 31.3611667,42.8436667 31.5735,42.937 C31.7858333,43.0303333 32.0366667,43.077 32.326,43.077 Z M33.299,40.844 L31.22,40.844 C31.2293333,40.704 31.2596667,40.5721667 31.311,40.4485 C31.3623333,40.3248333 31.4323333,40.2163333 31.521,40.123 C31.6096667,40.0296667 31.7158333,39.9561667 31.8395,39.9025 C31.9631667,39.8488333 32.102,39.822 32.256,39.822 C32.4053333,39.822 32.5418333,39.8488333 32.6655,39.9025 C32.7891667,39.9561667 32.8965,40.0285 32.9875,40.1195 C33.0785,40.2105 33.1508333,40.319 33.2045,40.445 C33.2581667,40.571 33.2896667,40.704 33.299,40.844 Z" id="FirstName" fill="#7D8C94" fill-rule="nonzero"></path>
                <path d="M120.857,43 L120.857,42.44 L118.211,42.44 L118.211,38.002 L117.546,38.002 L117.546,43 L120.857,43 Z M124.119,43.077 C124.301,43.077 124.443333,43.0466667 124.546,42.986 L124.546,42.986 L124.546,42.524 C124.476,42.5473333 124.415333,42.559 124.364,42.559 C124.270667,42.559 124.215833,42.5263333 124.1995,42.461 C124.183167,42.3956667 124.175,42.293 124.175,42.153 L124.175,42.153 L124.175,40.291 C124.175,40.081 124.135333,39.9106667 124.056,39.78 C123.976667,39.6493333 123.871667,39.5478333 123.741,39.4755 C123.610333,39.4031667 123.4645,39.3553333 123.3035,39.332 C123.1425,39.3086667 122.980333,39.297 122.817,39.297 C122.611667,39.297 122.419167,39.318 122.2395,39.36 C122.059833,39.402 121.9,39.4708333 121.76,39.5665 C121.62,39.6621667 121.508,39.787 121.424,39.941 C121.34,40.095 121.293333,40.284 121.284,40.508 L121.284,40.508 L121.879,40.508 C121.893,40.242 121.984,40.0611667 122.152,39.9655 C122.32,39.8698333 122.53,39.822 122.782,39.822 C122.875333,39.822 122.969833,39.829 123.0655,39.843 C123.161167,39.857 123.2475,39.885 123.3245,39.927 C123.4015,39.969 123.4645,40.0296667 123.5135,40.109 C123.5625,40.1883333 123.587,40.2933333 123.587,40.424 C123.587,40.536 123.554333,40.6211667 123.489,40.6795 C123.423667,40.7378333 123.335,40.7821667 123.223,40.8125 C123.111,40.8428333 122.9815,40.8661667 122.8345,40.8825 C122.6875,40.8988333 122.532333,40.9233333 122.369,40.956 C122.215,40.984 122.0645,41.019 121.9175,41.061 C121.7705,41.103 121.639833,41.1648333 121.5255,41.2465 C121.411167,41.3281667 121.319,41.4343333 121.249,41.565 C121.179,41.6956667 121.144,41.8636667 121.144,42.069 C121.144,42.251 121.1755,42.4061667 121.2385,42.5345 C121.3015,42.6628333 121.386667,42.7666667 121.494,42.846 C121.601333,42.9253333 121.7285,42.9836667 121.8755,43.021 C122.0225,43.0583333 122.177667,43.077 122.341,43.077 C122.593,43.077 122.8275,43.0338333 123.0445,42.9475 C123.2615,42.8611667 123.451667,42.72 123.615,42.524 C123.615,42.72 123.6605,42.8611667 123.7515,42.9475 C123.8425,43.0338333 123.965,43.077 124.119,43.077 Z M122.474,42.559 C122.380667,42.559 122.292,42.5496667 122.208,42.531 C122.124,42.5123333 122.0505,42.482 121.9875,42.44 C121.9245,42.398 121.873167,42.3431667 121.8335,42.2755 C121.793833,42.2078333 121.774,42.125 121.774,42.027 C121.774,41.8776667 121.807833,41.7598333 121.8755,41.6735 C121.943167,41.5871667 122.030667,41.5206667 122.138,41.474 C122.245333,41.4273333 122.366667,41.3935 122.502,41.3725 C122.637333,41.3515 122.7715,41.3328333 122.9045,41.3165 C123.0375,41.3001667 123.164667,41.2791667 123.286,41.2535 C123.407333,41.2278333 123.505333,41.187 123.58,41.131 L123.58,41.131 L123.58,41.74 C123.58,41.824 123.559,41.9138333 123.517,42.0095 C123.475,42.1051667 123.409667,42.1938333 123.321,42.2755 C123.232333,42.3571667 123.118,42.4248333 122.978,42.4785 C122.838,42.5321667 122.67,42.559 122.474,42.559 Z M126.401,43.077 C126.583,43.077 126.766167,43.0595 126.9505,43.0245 C127.134833,42.9895 127.3005,42.9276667 127.4475,42.839 C127.5945,42.7503333 127.7135,42.6336667 127.8045,42.489 C127.8955,42.3443333 127.941,42.1623333 127.941,41.943 C127.941,41.7703333 127.907167,41.6256667 127.8395,41.509 C127.771833,41.3923333 127.683167,41.2955 127.5735,41.2185 C127.463833,41.1415 127.337833,41.0796667 127.1955,41.033 C127.053167,40.9863333 126.907333,40.9466667 126.758,40.914 C126.618,40.8813333 126.478,40.8498333 126.338,40.8195 C126.198,40.7891667 126.072,40.7518333 125.96,40.7075 C125.848,40.6631667 125.755833,40.6071667 125.6835,40.5395 C125.611167,40.4718333 125.575,40.3866667 125.575,40.284 C125.575,40.1906667 125.598333,40.1148333 125.645,40.0565 C125.691667,39.9981667 125.752333,39.9515 125.827,39.9165 C125.901667,39.8815 125.9845,39.857 126.0755,39.843 C126.1665,39.829 126.256333,39.822 126.345,39.822 C126.443,39.822 126.539833,39.8325 126.6355,39.8535 C126.731167,39.8745 126.818667,39.9083333 126.898,39.955 C126.977333,40.0016667 127.042667,40.0635 127.094,40.1405 C127.145333,40.2175 127.175667,40.3143333 127.185,40.431 L127.78,40.431 C127.766,40.2116667 127.719333,40.0285 127.64,39.8815 C127.560667,39.7345 127.4545,39.6178333 127.3215,39.5315 C127.1885,39.4451667 127.035667,39.3845 126.863,39.3495 C126.690333,39.3145 126.501333,39.297 126.296,39.297 C126.137333,39.297 125.9775,39.3168333 125.8165,39.3565 C125.6555,39.3961667 125.510833,39.4568333 125.3825,39.5385 C125.254167,39.6201667 125.149167,39.7263333 125.0675,39.857 C124.985833,39.9876667 124.945,40.144 124.945,40.326 C124.945,40.5593333 125.003333,40.7413333 125.12,40.872 C125.236667,41.0026667 125.3825,41.1041667 125.5575,41.1765 C125.7325,41.2488333 125.922667,41.3048333 126.128,41.3445 C126.333333,41.3841667 126.5235,41.4285 126.6985,41.4775 C126.8735,41.5265 127.019333,41.5906667 127.136,41.67 C127.252667,41.7493333 127.311,41.866 127.311,42.02 C127.311,42.132 127.283,42.2241667 127.227,42.2965 C127.171,42.3688333 127.099833,42.4236667 127.0135,42.461 C126.927167,42.4983333 126.832667,42.524 126.73,42.538 C126.627333,42.552 126.529333,42.559 126.436,42.559 C126.314667,42.559 126.196833,42.5473333 126.0825,42.524 C125.968167,42.5006667 125.8655,42.4621667 125.7745,42.4085 C125.6835,42.3548333 125.61,42.2825 125.554,42.1915 C125.498,42.1005 125.467667,41.9896667 125.463,41.859 L124.868,41.859 C124.877333,42.083 124.924,42.2731667 125.008,42.4295 C125.092,42.5858333 125.204,42.7118333 125.344,42.8075 C125.484,42.9031667 125.645,42.972 125.827,43.014 C126.009,43.056 126.200333,43.077 126.401,43.077 Z M130.146,43 L130.146,42.475 L129.873,42.475 C129.779667,42.475 129.703833,42.4715 129.6455,42.4645 C129.587167,42.4575 129.541667,42.4423333 129.509,42.419 C129.476333,42.3956667 129.454167,42.363 129.4425,42.321 C129.430833,42.279 129.425,42.223 129.425,42.153 L129.425,39.906 L130.146,39.906 L130.146,39.381 L129.425,39.381 L129.425,38.296 L128.83,38.296 L128.83,39.381 L128.214,39.381 L128.214,39.906 L128.83,39.906 L128.83,42.209 C128.83,42.377 128.846333,42.5123333 128.879,42.615 C128.911667,42.7176667 128.961833,42.797 129.0295,42.853 C129.097167,42.909 129.185833,42.9475 129.2955,42.9685 C129.405167,42.9895 129.537,43 129.691,43 L130.146,43 Z M133.471,43 L133.471,38.989 L133.485,38.989 L136.096,43 L136.824,43 L136.824,38.002 L136.194,38.002 L136.194,42.055 L136.18,42.055 L133.548,38.002 L132.841,38.002 L132.841,43 L133.471,43 Z M140.583,43.077 C140.765,43.077 140.907333,43.0466667 141.01,42.986 L141.01,42.986 L141.01,42.524 C140.94,42.5473333 140.879333,42.559 140.828,42.559 C140.734667,42.559 140.679833,42.5263333 140.6635,42.461 C140.647167,42.3956667 140.639,42.293 140.639,42.153 L140.639,42.153 L140.639,40.291 C140.639,40.081 140.599333,39.9106667 140.52,39.78 C140.440667,39.6493333 140.335667,39.5478333 140.205,39.4755 C140.074333,39.4031667 139.9285,39.3553333 139.7675,39.332 C139.6065,39.3086667 139.444333,39.297 139.281,39.297 C139.075667,39.297 138.883167,39.318 138.7035,39.36 C138.523833,39.402 138.364,39.4708333 138.224,39.5665 C138.084,39.6621667 137.972,39.787 137.888,39.941 C137.804,40.095 137.757333,40.284 137.748,40.508 L137.748,40.508 L138.343,40.508 C138.357,40.242 138.448,40.0611667 138.616,39.9655 C138.784,39.8698333 138.994,39.822 139.246,39.822 C139.339333,39.822 139.433833,39.829 139.5295,39.843 C139.625167,39.857 139.7115,39.885 139.7885,39.927 C139.8655,39.969 139.9285,40.0296667 139.9775,40.109 C140.0265,40.1883333 140.051,40.2933333 140.051,40.424 C140.051,40.536 140.018333,40.6211667 139.953,40.6795 C139.887667,40.7378333 139.799,40.7821667 139.687,40.8125 C139.575,40.8428333 139.4455,40.8661667 139.2985,40.8825 C139.1515,40.8988333 138.996333,40.9233333 138.833,40.956 C138.679,40.984 138.5285,41.019 138.3815,41.061 C138.2345,41.103 138.103833,41.1648333 137.9895,41.2465 C137.875167,41.3281667 137.783,41.4343333 137.713,41.565 C137.643,41.6956667 137.608,41.8636667 137.608,42.069 C137.608,42.251 137.6395,42.4061667 137.7025,42.5345 C137.7655,42.6628333 137.850667,42.7666667 137.958,42.846 C138.065333,42.9253333 138.1925,42.9836667 138.3395,43.021 C138.4865,43.0583333 138.641667,43.077 138.805,43.077 C139.057,43.077 139.2915,43.0338333 139.5085,42.9475 C139.7255,42.8611667 139.915667,42.72 140.079,42.524 C140.079,42.72 140.1245,42.8611667 140.2155,42.9475 C140.3065,43.0338333 140.429,43.077 140.583,43.077 Z M138.938,42.559 C138.844667,42.559 138.756,42.5496667 138.672,42.531 C138.588,42.5123333 138.5145,42.482 138.4515,42.44 C138.3885,42.398 138.337167,42.3431667 138.2975,42.2755 C138.257833,42.2078333 138.238,42.125 138.238,42.027 C138.238,41.8776667 138.271833,41.7598333 138.3395,41.6735 C138.407167,41.5871667 138.494667,41.5206667 138.602,41.474 C138.709333,41.4273333 138.830667,41.3935 138.966,41.3725 C139.101333,41.3515 139.2355,41.3328333 139.3685,41.3165 C139.5015,41.3001667 139.628667,41.2791667 139.75,41.2535 C139.871333,41.2278333 139.969333,41.187 140.044,41.131 L140.044,41.131 L140.044,41.74 C140.044,41.824 140.023,41.9138333 139.981,42.0095 C139.939,42.1051667 139.873667,42.1938333 139.785,42.2755 C139.696333,42.3571667 139.582,42.4248333 139.442,42.4785 C139.302,42.5321667 139.134,42.559 138.938,42.559 Z M142.158,43 L142.158,40.746 C142.158,40.676 142.1755,40.5885 142.2105,40.4835 C142.2455,40.3785 142.3015,40.277 142.3785,40.179 C142.4555,40.081 142.555833,39.997 142.6795,39.927 C142.803167,39.857 142.951333,39.822 143.124,39.822 C143.259333,39.822 143.370167,39.8418333 143.4565,39.8815 C143.542833,39.9211667 143.611667,39.9771667 143.663,40.0495 C143.714333,40.1218333 143.7505,40.207 143.7715,40.305 C143.7925,40.403 143.803,40.5103333 143.803,40.627 L143.803,43 L144.398,43 L144.398,40.746 C144.398,40.466 144.482,40.242 144.65,40.074 C144.818,39.906 145.049,39.822 145.343,39.822 C145.487667,39.822 145.6055,39.843 145.6965,39.885 C145.7875,39.927 145.858667,39.9841667 145.91,40.0565 C145.961333,40.1288333 145.996333,40.214 146.015,40.312 C146.033667,40.41 146.043,40.515 146.043,40.627 L146.043,43 L146.638,43 L146.638,40.347 C146.638,40.1603333 146.608833,40.0005 146.5505,39.8675 C146.492167,39.7345 146.4105,39.626 146.3055,39.542 C146.2005,39.458 146.0745,39.3961667 145.9275,39.3565 C145.7805,39.3168333 145.616,39.297 145.434,39.297 C145.196,39.297 144.977833,39.3506667 144.7795,39.458 C144.581167,39.5653333 144.421333,39.717 144.3,39.913 C144.225333,39.689 144.097,39.5303333 143.915,39.437 C143.733,39.3436667 143.53,39.297 143.306,39.297 C142.797333,39.297 142.407667,39.5023333 142.137,39.913 L142.123,39.913 L142.123,39.381 L141.563,39.381 L141.563,43 L142.158,43 Z M149.074,43.077 C149.484667,43.077 149.825333,42.9743333 150.096,42.769 C150.366667,42.5636667 150.541667,42.258 150.621,41.852 L150.033,41.852 C149.981667,42.09 149.8755,42.2673333 149.7145,42.384 C149.5535,42.5006667 149.347,42.559 149.095,42.559 C148.899,42.559 148.728667,42.5263333 148.584,42.461 C148.439333,42.3956667 148.320333,42.3081667 148.227,42.1985 C148.133667,42.0888333 148.066,41.9628333 148.024,41.8205 C147.982,41.6781667 147.963333,41.5276667 147.968,41.369 L150.677,41.369 C150.686333,41.1496667 150.6665,40.9186667 150.6175,40.676 C150.5685,40.4333333 150.479833,40.2093333 150.3515,40.004 C150.223167,39.7986667 150.052833,39.6295 149.8405,39.4965 C149.628167,39.3635 149.361,39.297 149.039,39.297 C148.791667,39.297 148.564167,39.3436667 148.3565,39.437 C148.148833,39.5303333 147.969167,39.661 147.8175,39.829 C147.665833,39.997 147.548,40.1953333 147.464,40.424 C147.38,40.6526667 147.338,40.9046667 147.338,41.18 C147.347333,41.4553333 147.388167,41.7096667 147.4605,41.943 C147.532833,42.1763333 147.641333,42.377 147.786,42.545 C147.930667,42.713 148.109167,42.8436667 148.3215,42.937 C148.533833,43.0303333 148.784667,43.077 149.074,43.077 Z M150.047,40.844 L147.968,40.844 C147.977333,40.704 148.007667,40.5721667 148.059,40.4485 C148.110333,40.3248333 148.180333,40.2163333 148.269,40.123 C148.357667,40.0296667 148.463833,39.9561667 148.5875,39.9025 C148.711167,39.8488333 148.85,39.822 149.004,39.822 C149.153333,39.822 149.289833,39.8488333 149.4135,39.9025 C149.537167,39.9561667 149.6445,40.0285 149.7355,40.1195 C149.8265,40.2105 149.898833,40.319 149.9525,40.445 C150.006167,40.571 150.037667,40.704 150.047,40.844 Z" id="LastName" fill="#7D8C94" fill-rule="nonzero"></path>
                <rect id="Rectangle" fill="#EDF2F5" x="117" y="14.2105263" width="107.171053" height="20" rx="3"></rect>
            </g>
            <g id="Form-Field/Text-Field" transform="translate(23.000000, 130.000000)">
                <text id="Text-Label" font-family="HelveticaNeue-Medium, Helvetica Neue" font-size="8" font-weight="400" fill="#162731">
                    <tspan x="0" y="8">Email Address*</tspan>
                </text>
                <rect id="Rectangle-Copy" fill="#EDF2F5" x="0" y="14.6578947" width="225" height="20" rx="3"></rect>
            </g>
            <g id="Button" transform="translate(0.000000, 316.000000)">
                <rect id="Rectangle-Copy-5" fill="#576696" x="23" y="0" width="225" height="30" rx="3"></rect>
                <text id="Submit" font-family="HelveticaNeue-Medium, Helvetica Neue" font-size="10" font-weight="400" fill="#FFFFFF">
                    <tspan x="118.615" y="18">Submit</tspan>
                </text>
            </g>
            <g id="Radio-Buttons-(2)" transform="translate(23.000000, 268.000000)">
                <text id="Text-Label" font-family="HelveticaNeue-Medium, Helvetica Neue" font-size="8" font-weight="400" fill="#162731">
                    <tspan x="0" y="8">Would you like a video demo?</tspan>
                </text>
                <g id="Group" transform="translate(0.000000, 19.000000)">
                    <text id="Yes" font-family="HelveticaNeue, Helvetica Neue" font-size="7" font-weight="normal" fill="#162731">
                        <tspan x="10" y="7">Yes</tspan>
                    </text>
                    <circle id="Oval" fill="#EDF2F5" cx="3.5" cy="4.5" r="3.5"></circle>
                </g>
                <g id="Group-Copy" transform="translate(29.000000, 19.000000)">
                    <text id="No" font-family="HelveticaNeue, Helvetica Neue" font-size="7" font-weight="normal" fill="#162731">
                        <tspan x="10" y="7">No</tspan>
                    </text>
                    <circle id="Oval" stroke="#557EFF" stroke-width="0.3" fill="#EDF2F5" cx="3.5" cy="4.5" r="3.5"></circle>
                    <circle id="Oval-Copy" fill="#557EFF" cx="3.5" cy="4.5" r="2.5"></circle>
                </g>
            </g>
            <g id="Form-Field/Dropdown" transform="translate(23.000000, 175.000000)">
                <g id="Dropdown" transform="translate(0.000000, 15.000000)">
                    <rect id="BG" fill="#EDF2F5" x="0" y="0" width="225" height="20" rx="3"></rect>
                    <g id="Arrows" transform="translate(215.000000, 7.000000)" fill="#15232B">
                        <path d="M2.14142136,0.141421356 L3.65857864,1.65857864 C3.7366835,1.7366835 3.7366835,1.8633165 3.65857864,1.94142136 C3.62107137,1.97892863 3.57020059,2 3.51715729,2 L0.482842712,2 C0.372385763,2 0.282842712,1.91045695 0.282842712,1.8 C0.282842712,1.7469567 0.303914081,1.69608592 0.341421356,1.65857864 L1.85857864,0.141421356 C1.9366835,0.0633164979 2.0633165,0.0633164979 2.14142136,0.141421356 Z" id="Triangle"></path>
                        <path d="M2.14142136,4.14142136 L3.65857864,5.65857864 C3.7366835,5.7366835 3.7366835,5.8633165 3.65857864,5.94142136 C3.62107137,5.97892863 3.57020059,6 3.51715729,6 L0.482842712,6 C0.372385763,6 0.282842712,5.91045695 0.282842712,5.8 C0.282842712,5.7469567 0.303914081,5.69608592 0.341421356,5.65857864 L1.85857864,4.14142136 C1.9366835,4.0633165 2.0633165,4.0633165 2.14142136,4.14142136 Z" id="Triangle-Copy" transform="translate(2.000000, 5.000000) scale(1, -1) translate(-2.000000, -5.000000) "></path>
                    </g>
                    <text id="Choose-One" font-family="HelveticaNeue, Helvetica Neue" font-size="7" font-weight="normal" fill="#7D8C94">
                        <tspan x="8" y="12">Choose One</tspan>
                    </text>
                </g>
                <text id="Text-Label" font-family="HelveticaNeue-Medium, Helvetica Neue" font-size="8" font-weight="400" fill="#162731">
                    <tspan x="0" y="8">Your Industry*</tspan>
                </text>
            </g>
            <g id="Form-Field/Dropdown-Copy" transform="translate(23.000000, 221.000000)">
                <g id="Dropdown" transform="translate(0.000000, 15.000000)">
                    <rect id="BG" fill="#EDF2F5" x="0" y="0" width="225" height="20" rx="3"></rect>
                    <g id="Arrows" transform="translate(215.000000, 7.000000)" fill="#15232B">
                        <path d="M2.14142136,0.141421356 L3.65857864,1.65857864 C3.7366835,1.7366835 3.7366835,1.8633165 3.65857864,1.94142136 C3.62107137,1.97892863 3.57020059,2 3.51715729,2 L0.482842712,2 C0.372385763,2 0.282842712,1.91045695 0.282842712,1.8 C0.282842712,1.7469567 0.303914081,1.69608592 0.341421356,1.65857864 L1.85857864,0.141421356 C1.9366835,0.0633164979 2.0633165,0.0633164979 2.14142136,0.141421356 Z" id="Triangle"></path>
                        <path d="M2.14142136,4.14142136 L3.65857864,5.65857864 C3.7366835,5.7366835 3.7366835,5.8633165 3.65857864,5.94142136 C3.62107137,5.97892863 3.57020059,6 3.51715729,6 L0.482842712,6 C0.372385763,6 0.282842712,5.91045695 0.282842712,5.8 C0.282842712,5.7469567 0.303914081,5.69608592 0.341421356,5.65857864 L1.85857864,4.14142136 C1.9366835,4.0633165 2.0633165,4.0633165 2.14142136,4.14142136 Z" id="Triangle-Copy" transform="translate(2.000000, 5.000000) scale(1, -1) translate(-2.000000, -5.000000) "></path>
                    </g>
                    <text id="Choose-One" font-family="HelveticaNeue, Helvetica Neue" font-size="7" font-weight="normal" fill="#7D8C94">
                        <tspan x="8" y="12">Choose One</tspan>
                    </text>
                </g>
                <text id="Text-Label" font-family="HelveticaNeue-Medium, Helvetica Neue" font-size="8" font-weight="400" fill="#162731">
                    <tspan x="0" y="8">What service are you interested in?*</tspan>
                </text>
            </g>
            <text id="Contact-Sales" font-family="HelveticaNeue-Medium, Helvetica Neue" font-size="10" font-weight="400" fill="#070707">
                <tspan x="102.675" y="62">Contact Sales</tspan>
            </text>
            <g id="Logo" transform="translate(94.000000, 16.000000)" fill="#576696">
                <g id="Symbol">
                    <path d="M2.9062,19.345 L1.8746,19.345 C1.0198,19.345 0.3266,18.6518 0.3266,17.797 L0.3266,6.9306 C0.3266,6.0758 1.0198,5.3826 1.8746,5.3826 L2.7366,5.3826 C3.5914,5.3826 4.2846,6.0758 4.2846,6.9306 L4.2846,17.9666 C4.2846,18.7278 3.6674,19.345 2.9062,19.345" id="Fill-2"></path>
                    <path d="M24.6442,24.7274 L23.6126,24.7274 C22.7578,24.7274 22.0646,24.0342 22.0646,23.1794 L22.0646,1.5482 C22.0646,0.6934 22.7578,0.0002 23.6126,0.0002 L24.4746,0.0002 C25.3294,0.0002 26.0226,0.6934 26.0226,1.5482 L26.0226,23.349 C26.0226,24.1102 25.4054,24.7274 24.6442,24.7274" id="Fill-4"></path>
                    <path d="M10.1522,24.7274 L9.1206,24.7274 C8.2658,24.7274 7.5726,24.0342 7.5726,23.1794 L7.5726,1.5482 C7.5726,0.6934 8.2658,0.0002 9.1206,0.0002 L9.9826,0.0002 C10.8374,0.0002 11.5306,0.6934 11.5306,1.5482 L11.5306,23.349 C11.5306,24.1102 10.9134,24.7274 10.1522,24.7274" id="Fill-6"></path>
                    <path d="M31.8902,19.345 L30.8586,19.345 C30.0038,19.345 29.3106,18.6518 29.3106,17.797 L29.3106,6.9306 C29.3106,6.0758 30.0038,5.3826 30.8586,5.3826 L31.7206,5.3826 C32.5754,5.3826 33.2686,6.0758 33.2686,6.9306 L33.2686,17.9666 C33.2686,18.7278 32.6514,19.345 31.8902,19.345" id="Fill-8"></path>
                    <path d="M17.3982,19.78288 L16.3666,19.78288 C15.5118,19.78288 14.8186,19.08968 14.8186,18.23488 L14.8186,7.67688 C14.8186,6.82168 15.5118,6.12888 16.3666,6.12888 L17.2286,6.12888 C18.0834,6.12888 18.7766,6.82168 18.7766,7.67688 L18.7766,18.40448 C18.7766,19.16568 18.1594,19.78288 17.3982,19.78288" id="Fill-10"></path>
                </g>
                <path d="M42.1264,17.6 L42.1264,16.5024 L45.7328,10.9584 L42.16,10.9584 L42.16,9.76 L47.3904,9.76 L47.3904,10.8576 L43.7616,16.4016 L47.4128,16.4016 L47.4128,17.6 L42.1264,17.6 Z M52.2008,17.6 L52.2008,9.76 L57.3192,9.76 L57.3192,10.9136 L53.6344,10.9136 L53.6344,13.064 L56.9832,13.064 L56.9832,14.184 L53.6344,14.184 L53.6344,16.4464 L57.3192,16.4464 L57.3192,17.6 L52.2008,17.6 Z M62.1744,17.6 L62.1744,9.76 L63.8768,9.76 L66.3744,14.7328 L68.8384,9.76 L70.5408,9.76 L70.5408,17.6 L69.1072,17.6 L69.1072,12.1904 L66.9232,16.48 L65.792,16.48 L63.608,12.1904 L63.608,17.6 L62.1744,17.6 Z M75.564,17.6 L75.564,9.76 L78.4424,9.76 C79.0696031,9.76 79.5866646,9.86639894 79.9936,10.0792 C80.4005354,10.2920011 80.704799,10.5794649 80.9064,10.9416 C81.108001,11.3037351 81.2088,11.7050645 81.2088,12.1456 C81.2088,12.6234691 81.0837346,13.0602647 80.8336,13.456 C80.5834654,13.8517353 80.193336,14.1391991 79.6632,14.3184 L81.2872,17.6 L79.6408,17.6 L78.1848,14.5088 L76.9976,14.5088 L76.9976,17.6 L75.564,17.6 Z M76.9976,13.456 L78.3528,13.456 C78.8306691,13.456 79.1815989,13.3402678 79.4056,13.1088 C79.6296011,12.8773322 79.7416,12.5712019 79.7416,12.1904 C79.7416,11.8170648 79.6314678,11.5184011 79.4112,11.2944 C79.1909322,11.0703989 78.8344025,10.9584 78.3416,10.9584 L76.9976,10.9584 L76.9976,13.456 Z" id="ZEMR" fill-rule="nonzero"></path>
            </g>
        </g>
    </g>
</svg>